PathFileType	3	(X/Y/Z)	walking_1__view2_aligned.trc
DataRate	CameraRate	NumFrames	NumMarkers	Units	OrigDataRate	OrigDataStartFrame	OrigNumFrames
100.0	100.0	11	19	mm	100.0	1	6105
Frame#	Time	pelvis			neck			head			hip_left			hip_right			knee_left			knee_right			ankle_left			ankle_right			heel_left			heel_right			toe_left			toe_right			shoulder_left			shoulder_right			elbow_left			elbow_right			wrist_left			wrist_right			
		X1	Y1	Z1	X2	Y2	Z2	X3	Y3	Z3	X4	Y4	Z4	X5	Y5	Z5	X6	Y6	Z6	X7	Y7	Z7	X8	Y8	Z8	X9	Y9	Z9	X10	Y10	Z10	X11	Y11	Z11	X12	Y12	Z12	X13	Y13	Z13	X14	Y14	Z14	X15	Y15	Z15	X16	Y16	Z16	X17	Y17	Z17	X18	Y18	Z18	X19	Y19	Z19	
1	0.00000	27.892127	941.663020	264.448317	19.569276	1509.670223	344.071408	15.949191	1589.608634	498.405120	104.280071	940.232882	260.942765	-48.496061	943.093182	267.953863	144.970706	509.635850	278.521136	-74.884067	530.070184	413.200895	131.224466	189.157887	17.271904	-90.821183	102.375858	418.021982	122.934348	167.616264	-35.387751	-91.168752	47.777965	388.825533	141.648368	40.100236	129.956545	-102.719558	60.273305	617.058496	197.856003	1464.193763	303.011577	-156.070951	1446.710461	303.208774	282.024119	1184.046348	277.556303	-208.157605	1158.301437	265.850165	312.327734	943.095544	394.293699	-243.334323	897.171205	328.818452
2	0.01000	25.614891	941.895605	264.935987	17.070463	1509.938727	344.218898	13.886518	1589.951622	498.499027	101.981038	940.366376	261.529907	-50.751500	943.424857	268.342059	143.172360	510.334892	283.724607	-75.863525	529.221134	409.646340	129.592828	191.390320	21.364563	-90.382387	101.546419	411.732934	121.404120	170.284403	-31.414188	-90.671290	47.001686	382.339397	139.240500	41.242604	132.761668	-101.811178	59.001433	610.718418	195.203370	1464.536160	302.282576	-158.740791	1446.697773	304.174410	279.651446	1184.300496	276.541019	-210.590585	1157.945037	267.707868	311.503904	943.419143	393.595292	-245.458191	896.560322	330.808565
3	0.02000	23.337654	942.128191	265.423658	14.571651	1510.207232	344.366388	11.823845	1590.294611	498.592934	99.682005	940.499871	262.117049	-53.006939	943.756533	268.730255	141.374014	511.033935	288.928079	-76.842983	528.372083	406.091786	127.961190	193.622753	25.457223	-89.943591	100.716981	405.443886	119.873892	172.952541	-27.440625	-90.173828	46.225407	375.853262	136.832632	42.384972	135.566792	-100.902799	57.729560	604.378340	192.550737	1464.878558	301.553574	-161.410631	1446.685085	305.140046	277.278772	1184.554644	275.525735	-213.023565	1157.588637	269.565572	310.680075	943.742741	392.896885	-247.582060	895.949438	332.798678
4	0.03000	21.060418	942.360776	265.911328	12.072839	1510.475736	344.513879	9.761172	1590.637600	498.686842	97.382972	940.633366	262.704190	-55.262378	944.088209	269.118451	139.575669	511.732978	294.131550	-77.822441	527.523032	402.537232	126.329553	195.855185	29.549882	-89.504796	99.887543	399.154839	118.343663	175.620680	-23.467062	-89.676366	45.449128	369.367126	134.424764	43.527340	138.371915	-99.994420	56.457688	598.038262	189.898103	1465.220956	300.824572	-164.080470	1446.672397	306.105682	274.906099	1184.808792	274.510451	-215.456544	1157.232237	271.423275	309.856245	944.066339	392.198478	-249.705928	895.338554	334.788791
5	0.04000	18.783182	942.593361	266.398998	9.574027	1510.744240	344.661369	7.698499	1590.980588	498.780749	95.083938	940.766861	263.291332	-57.517817	944.419884	269.506647	137.777323	512.432020	299.335021	-78.801898	526.673982	398.982677	124.697915	198.087618	33.642541	-89.066000	99.058105	392.865791	116.813435	178.288819	-19.493500	-89.178904	44.672849	362.880991	132.016896	44.669707	141.177038	-99.086040	55.185815	591.698184	187.245470	1465.563354	300.095570	-166.750310	1446.659709	307.071318	272.533426	1185.062940	273.495167	-217.889524	1156.875837	273.280978	309.032416	944.389937	391.500071	-251.829796	894.727671	336.778904
6	0.05000	16.505946	942.825946	266.886668	7.075214	1511.012744	344.808860	5.635826	1591.323577	498.874656	92.784905	940.900356	263.878474	-59.773256	944.751560	269.894842	135.978977	513.131063	304.538493	-79.781356	525.824931	395.428123	123.066277	200.320050	37.735200	-88.627204	98.228666	386.576743	115.283207	180.956957	-15.519937	-88.681442	43.896570	356.394855	129.609028	45.812075	143.982161	-98.177661	53.913943	585.358106	184.592837	1465.905751	299.366569	-169.420150	1446.647021	308.036955	270.160753	1185.317088	272.479883	-220.322504	1156.519437	275.138682	308.208586	944.713535	390.801664	-253.953664	894.116787	338.769017
7	0.06000	14.228709	943.058532	267.374339	4.576402	1511.281248	344.956350	3.573153	1591.666565	498.968564	90.485872	941.033850	264.465615	-62.028695	945.083236	270.283038	134.180631	513.830106	309.741964	-80.760814	524.975880	391.873568	121.434639	202.552483	41.827860	-88.188409	97.399228	380.287696	113.752978	183.625096	-11.546374	-88.183980	43.120291	349.908720	127.201160	46.954443	146.787285	-97.269281	52.642071	579.018029	181.940204	1466.248149	298.637567	-172.089989	1446.634333	309.002591	267.788079	1185.571235	271.464600	-222.755483	1156.163037	276.996385	307.384757	945.037134	390.103256	-256.077533	893.505903	340.759130
8	0.07000	12.675497	943.058935	267.723126	2.921763	1511.273833	344.921066	2.285596	1591.662558	498.927966	88.918506	940.995147	264.849430	-63.567730	945.122738	270.596796	132.882881	514.328005	314.270017	-81.537042	524.062565	388.354133	120.384321	203.085198	48.296009	-88.191219	97.274107	373.089971	112.787332	184.110306	-4.890956	-88.187366	43.209327	342.414256	125.590439	47.970859	153.268247	-96.842396	51.725435	571.424792	180.162956	1466.199816	297.724868	-173.943193	1446.439090	309.746908	266.133949	1185.423827	270.075662	-224.517831	1155.709924	278.705307	307.110435	944.782077	388.207334	-257.059792	893.283949	343.424613
9	0.08000	11.122285	943.059339	268.071913	1.267124	1511.266418	344.885782	0.998038	1591.658550	498.887368	87.351141	940.956444	265.233245	-65.106765	945.162241	270.910554	131.585131	514.825905	318.798070	-82.313270	523.149249	384.834698	119.334002	203.617912	54.764158	-88.194030	97.148985	365.892246	111.821685	184.595516	1.764463	-88.190753	43.298363	334.919792	123.979718	48.987275	159.749210	-96.415511	50.808799	563.831556	178.385708	1466.151483	296.812169	-175.796397	1446.243847	310.491226	264.479818	1185.276419	268.686725	-226.280178	1155.256810	280.414229	306.836113	944.527020	386.311412	-258.042051	893.061994	346.090096
10	0.09000	9.569072	943.059743	268.420700	-0.387515	1511.259003	344.850498	-0.289519	1591.654543	498.846770	85.783775	940.917740	265.617060	-66.645800	945.201743	271.224312	130.287380	515.323804	323.326122	-83.089497	522.235933	381.315263	118.283684	204.150627	61.232307	-88.196840	97.023864	358.694521	110.856039	185.080727	8.419881	-88.194139	43.387399	327.425327	122.368997	50.003691	166.230173	-95.988626	49.892163	556.238320	176.608460	1466.103150	295.899470	-177.649600	1446.048605	311.235543	262.825687	1185.129011	267.297787	-228.042526	1154.803697	282.123150	306.561791	944.271963	384.415491	-259.024310	892.840040	348.755578
11	0.10000	8.015860	943.060147	268.769486	-2.042154	1511.251587	344.815214	-1.577077	1591.650536	498.806173	84.216409	940.879037	266.000875	-68.184835	945.241246	271.538070	128.989630	515.821704	327.854175	-83.865725	521.322618	377.795828	117.233365	204.683342	67.700456	-88.199651	96.898743	351.496796	109.890392	185.565937	15.075300	-88.197526	43.476434	319.930863	120.758276	51.020107	172.711135	-95.561741	48.975527	548.645084	174.831212	1466.054817	294.986771	-179.502804	1445.853362	311.979861	261.171557	1184.981603	265.908850	-229.804874	1154.350584	283.832072	306.287469	944.016906	382.519569	-260.006570	892.618085	351.421061
